<svg xmlns="http://www.w3.org/2000/svg" version="1.0" width="260.000000pt" height="260.000000pt" viewBox="0 0 260.000000 260.000000" preserveAspectRatio="xMidYMid meet">
<metadata>
Created by potrace 1.14, written by Peter Selinger 2001-2017
</metadata>
<g transform="translate(0.000000,260.000000) scale(0.100000,-0.100000)" fill="#000000" stroke="none">
<path d="M188 2586 c-78 -28 -140 -87 -170 -159 -15 -38 -17 -115 -17 -857 l-1 -815 24 -50 c29 -62 74 -109 134 -138 45 -21 62 -22 377 -27 l331 -5 -1 -117 0 -118 -70 -46 c-38 -26 -74 -50 -79 -54 -14 -14 -15 -102 -1 -136 27 -65 19 -64 585 -64 532 0 535 0 573 43 19 22 19 21 22 90 2 43 -2 51 -31 77 -18 16 -54 41 -79 55 -25 15 -45 30 -46 33 0 4 -2 29 -4 55 -4 58 -18 77 -56 77 -43 0 -56 -28 -54 -111 2 -80 3 -80 94 -141 36 -24 66 -49 69 -56 3 -9 -101 -12 -487 -12 -310 0 -491 4 -491 10 0 5 34 32 75 60 42 28 79 61 84 73 4 12 7 80 7 152 l-1 130 710 5 c693 5 711 5 755 26 54 25 103 72 133 128 20 37 22 58 25 223 3 169 2 183 -16 201 -19 19 -40 20 -1147 19 -1086 0 -1128 0 -1146 -18 -24 -24 -24 -51 -1 -72 17 -16 108 -17 1110 -17 l1092 0 0 -124 c0 -143 -11 -181 -67 -223 l-36 -28 -1087 0 -1087 0 -37 29 c-70 53 -67 9 -64 900 3 799 3 805 24 833 11 15 36 38 54 51 l33 22 1077 0 1078 0 33 -23 c18 -12 44 -38 56 -56 l23 -34 0 -516 c0 -451 2 -519 16 -539 19 -27 55 -29 78 -3 15 17 17 62 14 552 -3 525 -3 535 -25 574 -30 57 -71 99 -123 126 l-45 24 -1090 2 c-893 2 -1097 0 -1127 -11z"/>
<path d="M827 2042 c-123 -124 -177 -185 -177 -201 0 -26 332 -364 367 -373 30 -8 63 18 63 49 0 20 -34 60 -150 175 l-149 149 149 149 c126 126 150 154 150 180 0 31 -22 50 -57 50 -11 0 -93 -75 -196 -178z"/>
<path d="M1530 2200 c-31 -31 -14 -57 140 -210 77 -76 140 -143 140 -148 0 -5 -62 -72 -139 -148 -76 -77 -143 -149 -149 -160 -17 -33 20 -78 56 -69 38 9 372 349 372 378 0 31 -346 377 -378 377 -12 0 -31 -9 -42 -20z"/>
</g>
</svg>